<svg version="1.1" id="Layer_1" xmlns="http://www.w3.org/2000/svg" xmlns:xlink="http://www.w3.org/1999/xlink" x="0px" y="0px"
	 width="100%" viewBox="0 0 1024 512" enable-background="new 0 0 1024 512" xml:space="preserve">
<path fill="currentColor" opacity="1.000000" stroke="none"
	d="
M75.849510,497.315613
	C68.166847,490.902985 65.889534,482.159912 64.064468,473.363403
	C62.787708,467.209595 61.620182,460.881195 61.671722,454.641266
	C61.739849,446.393616 62.224411,438.070801 63.079582,429.880249
	C64.792000,413.479279 69.314972,397.590210 74.178642,381.872589
	C79.292282,365.347137 86.376831,349.565613 93.128990,333.656158
	C103.241440,309.829132 116.360886,287.814880 130.624359,266.238312
	C143.745926,246.389084 156.752960,226.464569 171.048645,207.472931
	C181.633743,193.410782 192.194687,179.309799 203.294937,165.609299
	C217.879425,147.608353 233.748825,130.898254 250.078995,114.530037
	C269.091431,95.473297 287.630920,75.945343 306.591827,56.836353
	C320.918152,42.398117 337.560364,31.579844 357.720215,27.255808
	C368.069611,25.035990 378.586395,22.808472 389.129639,26.733961
	C394.524780,28.742706 399.494049,31.576523 403.266785,35.859108
	C408.681458,42.005512 413.005188,48.904537 415.492065,56.849213
	C416.344666,59.572987 415.656311,61.318882 413.236542,62.651932
	C405.565582,66.877853 393.970520,65.398079 390.134796,57.917770
	C389.238251,56.169308 387.831696,54.655884 386.530701,53.145493
	C376.775330,41.819897 369.043640,40.878170 355.143677,47.210423
	C343.927338,52.320129 335.102936,59.970341 326.775604,68.693657
	C317.468842,78.442986 307.742889,87.760506 297.684631,96.780060
	C290.308746,103.394257 284.271088,111.501465 277.106659,118.460289
	C263.733795,131.449371 250.026443,144.134369 237.280304,157.717285
	C223.962387,171.909531 212.548386,187.747269 200.709274,203.205673
	C187.538864,220.402420 175.700958,238.508743 163.193878,256.154755
	C147.935333,277.682770 135.771500,300.965393 123.240738,324.028351
	C116.350220,336.710419 111.122604,350.256012 106.524315,364.021790
	C101.732704,378.366302 95.554512,392.250122 91.756531,406.928009
	C89.718483,414.804291 88.077492,422.796478 86.599701,430.799591
	C85.709366,435.621307 88.028580,440.243500 88.261734,445.102936
	C88.594658,452.041748 88.715141,459.062256 90.249222,465.924835
	C90.802750,468.400970 91.656761,470.693634 92.899315,472.887573
	C97.605820,481.197662 104.262962,481.607025 110.998871,474.729675
	C135.555496,449.657318 155.192917,420.700592 175.913086,392.631073
	C188.349136,375.783936 199.579605,358.048126 211.393158,340.739929
	C223.196899,323.446106 234.528625,305.796814 247.040359,289.029480
	C258.255096,274.000275 270.512451,259.740967 283.906982,246.488724
	C302.016785,228.571259 318.571045,209.399414 332.485260,187.868195
	C339.808533,176.535995 347.317383,164.923904 359.234222,157.254852
	C363.707336,154.376175 368.557648,152.945145 373.407684,151.257599
	C375.198456,150.634491 377.070343,150.270798 378.458557,152.009369
	C379.866943,153.773148 378.939606,155.611343 378.028229,157.140854
	C374.024475,163.860184 370.115570,170.653976 365.751251,177.137329
	C348.830627,202.273605 329.924835,225.949844 311.851562,250.241119
	C298.331207,268.413086 282.784912,284.843445 268.653046,302.478333
	C258.796295,314.778412 250.145645,327.549591 245.410614,342.807007
	C240.625031,358.227356 240.524796,373.540283 245.500046,388.778168
	C249.365341,400.616547 262.194733,406.463257 276.586334,404.706848
	C290.892395,402.960846 301.182251,395.213074 309.742706,384.570740
	C316.727570,375.887207 323.063232,366.683685 329.979309,357.942169
	C340.406128,344.763306 353.639252,337.521088 370.999329,339.154022
	C378.088928,339.820862 384.585175,342.228516 391.012787,344.936157
	C394.590851,346.443420 395.780273,349.046906 393.169312,352.465485
	C390.651276,355.762421 388.063904,359.007202 385.469849,362.245117
	C374.259521,376.237793 365.855957,391.861938 359.329834,408.458740
	C357.109070,414.106384 355.737732,420.102081 356.643311,426.536713
	C357.085205,429.676483 357.106903,434.048035 353.287415,435.802277
	C349.091278,437.729553 344.488251,437.791595 340.178345,435.827576
	C338.144318,434.900726 338.110474,432.685608 337.761047,430.669220
	C333.872406,408.229645 341.490143,389.561523 356.121490,372.964142
	C359.671997,368.936523 363.180023,364.655792 365.247467,359.696533
	C363.497986,357.427795 361.639679,358.122803 359.926239,358.571686
	C354.115692,360.093933 350.119904,363.908691 346.932434,368.836304
	C332.801636,390.681549 315.467010,409.201141 292.078339,421.396179
	C274.230255,430.702209 254.296707,429.405975 238.704544,414.305115
	C230.662445,406.516418 223.440353,398.586639 221.512009,386.998962
	C220.845367,382.993011 221.156082,379.040222 220.916077,375.069336
	C220.791260,373.004333 221.555389,370.752167 219.911087,368.949890
	C218.010956,369.142151 217.459320,370.709320 216.611893,371.871277
	C201.710098,392.303680 186.973007,412.858124 171.893387,433.158173
	C163.943008,443.860809 157.020187,455.246094 149.196121,466.022156
	C139.191238,479.801788 126.436630,490.505890 110.969559,497.247498
	C101.421371,501.409271 90.888229,503.081635 80.273926,500.195099
	C78.562965,499.729797 77.323822,498.729492 75.849510,497.315613
z"/>
<path fill="currentColor" opacity="1.000000" stroke="none"
	d="
M551.337036,366.011353
	C555.901245,365.008514 559.702209,366.485596 563.493958,367.674866
	C567.285461,368.864075 567.394592,370.827332 564.964844,373.946533
	C560.370361,379.844757 554.453369,384.657806 550.859192,391.373535
	C547.862427,396.973053 548.008606,403.045135 547.182739,409.724457
	C553.641296,408.565857 557.674683,404.677246 561.917236,401.471313
	C578.351196,389.052765 592.257812,374.066437 605.271484,358.183350
	C610.200745,352.167297 617.771423,351.713867 624.607849,350.068909
	C627.210449,349.442688 628.688416,351.927734 629.071411,354.468994
	C629.719910,358.771729 628.987915,362.688690 625.975952,366.109589
	C620.477234,372.354797 615.256897,378.850494 609.629944,384.974731
	C607.148743,387.675262 607.142334,389.702972 608.854980,392.870514
	C613.731445,401.889282 620.280396,408.307068 631.195923,407.457489
	C637.297119,406.982666 643.179565,404.796417 649.039856,402.893616
	C659.764160,399.411499 669.234131,393.523682 678.673218,387.580750
	C683.972412,384.244354 685.264709,380.501160 684.043823,373.925720
	C679.281494,348.276398 696.757385,323.927185 721.982117,321.106018
	C742.411560,318.821167 752.536072,335.841248 749.600098,353.446625
	C748.980530,357.161530 746.464844,360.029205 742.867737,361.655640
	C736.349243,364.602997 729.813354,367.512634 723.314392,370.502319
	C720.500977,371.796539 717.389099,372.817474 716.149170,376.728973
	C720.359802,379.540314 725.394714,379.718658 729.860779,380.479309
	C746.697876,383.346985 763.724976,385.061310 780.803772,385.591705
	C810.140076,386.502747 838.532654,391.917999 865.996155,402.256531
	C869.736267,403.664520 873.537537,404.910187 877.273315,406.329041
	C895.831543,413.377472 899.654236,429.566650 889.419250,446.485992
	C883.816650,455.747650 874.879089,460.878082 866.009644,465.344788
	C851.631348,472.585785 836.677246,479.066467 820.303894,480.602478
	C808.343140,481.724609 796.352173,481.104645 784.434082,479.819489
	C779.218994,479.257141 778.093140,476.212128 780.703430,471.712860
	C782.829529,468.048126 786.321777,466.931641 790.070679,467.103668
	C801.630981,467.634277 813.045471,466.504395 824.168518,463.608459
	C840.166809,459.443237 855.776245,453.707001 869.352051,444.257812
	C878.699524,437.751648 879.937561,423.593842 867.806213,417.696686
	C863.412842,415.561005 858.917664,414.050903 854.380493,412.545654
	C834.886597,406.078430 814.984375,402.145477 794.377930,400.722321
	C775.510742,399.419281 756.604004,397.746124 737.891968,394.514954
	C727.901306,392.789795 717.764832,391.920197 707.710938,390.542572
	C704.575317,390.112946 702.250122,391.593811 699.878601,393.158722
	C688.211853,400.857422 676.655396,408.723755 664.028931,414.852539
	C654.039551,419.701294 643.531433,422.605804 632.552917,424.034515
	C627.594421,424.679810 622.875916,423.959351 618.475464,421.758118
	C609.241028,417.138794 600.127075,412.290710 593.416321,404.076782
	C591.552612,401.795593 589.742920,402.667084 587.740112,403.933685
	C576.485413,411.051025 564.927490,417.726318 554.000488,425.312164
	C545.679504,431.088867 537.569336,428.661133 532.149048,424.970978
	C527.456909,421.776581 523.668579,409.565918 526.786743,403.474274
	C528.493103,400.140686 529.642029,396.521759 531.325500,392.325745
	C523.129883,394.751282 516.622498,399.033905 513.011597,405.483765
	C504.506714,420.675568 491.638885,418.019318 478.560608,415.282013
	C470.546692,413.604736 462.430359,412.777496 454.326538,412.369110
	C448.348663,412.067902 444.484070,416.703796 440.769562,420.797211
	C429.571991,433.137115 414.728149,430.739014 407.630829,415.613556
	C403.189728,406.148926 404.655579,396.975739 406.832581,387.205017
	C411.030548,368.364105 424.247223,357.598724 439.397430,348.376495
	C447.558960,343.408386 457.169617,341.902496 466.050995,338.625427
	C468.796814,337.612213 471.049805,339.255280 472.299805,341.580780
	C473.787506,344.348450 475.486084,347.286407 475.877563,350.308044
	C477.203796,360.545807 477.517700,370.846466 476.026184,381.137268
	C475.569672,384.286926 473.370239,385.920990 471.202362,387.785309
	C469.121826,389.574524 466.171783,391.344330 467.483917,394.715027
	C468.722931,397.897827 471.965088,398.517761 474.977112,398.710632
	C486.179688,399.427887 495.863525,395.619446 505.482727,389.921204
	C517.304626,382.918121 527.554016,373.247559 540.820374,368.717407
	C544.098877,367.597870 547.535583,366.941864 551.337036,366.011353
M426.795105,408.397339
	C432.322174,408.596954 435.260345,404.996338 437.413177,400.723450
	C440.563873,394.469940 443.925323,388.329102 448.068573,382.717041
	C452.136505,377.206909 454.106964,370.943207 455.874237,364.534943
	C456.325134,362.900055 457.519501,361.032837 455.270386,359.610291
	C454.009979,359.544830 452.955017,360.189758 452.203735,361.022095
	C444.883148,369.132660 435.489838,375.123383 428.984009,384.096649
	C423.511169,391.645081 422.694214,399.519501 426.795105,408.397339
M710.233215,348.904083
	C709.285156,351.729736 707.796875,354.786407 710.375977,357.288971
	C712.943237,359.780090 715.874756,358.283691 718.745850,357.227844
	C722.249390,355.939392 725.369385,354.072845 727.993347,351.525085
	C730.812744,348.787628 733.217468,345.810303 730.002869,341.621277
	C727.287292,338.082489 723.207275,336.986542 719.013367,338.941132
	C714.895569,340.860199 712.031372,343.897339 710.233215,348.904083
z"/>
<path fill="currentColor" opacity="1.000000" stroke="none"
	d="
M865.025513,239.124725
	C861.869629,238.988113 859.276367,239.323608 856.887390,240.771500
	C844.631348,248.199326 831.430359,246.766632 818.183350,244.855209
	C813.242493,244.142273 808.463135,243.603287 803.528198,245.732819
	C795.434570,249.225357 787.060730,252.063019 778.850830,255.293152
	C767.847534,259.622375 759.008667,266.617065 752.771179,276.776917
	C750.323669,280.763611 747.793579,284.639038 742.965332,286.295197
	C734.823364,289.088013 730.054138,284.867462 730.902832,276.288391
	C731.690979,268.321381 734.903625,261.264130 737.625305,253.977402
	C738.324219,252.106110 739.177979,250.282227 739.737244,248.371201
	C741.267273,243.142593 740.383728,241.566879 735.048340,242.235184
	C723.845581,243.638412 712.471802,242.697372 701.341492,245.372604
	C693.707031,247.207642 685.745728,246.622711 677.987854,245.725006
	C674.220581,245.289093 671.067383,245.574982 668.213379,248.028168
	C662.861938,252.627945 657.131165,251.479355 651.303711,249.216385
	C648.648682,248.185364 647.948425,246.460464 648.740295,243.677658
	C650.382751,237.906036 654.215881,234.060654 659.523254,231.993530
	C664.108459,230.207672 668.806213,228.586609 673.993408,228.757263
	C682.050476,229.022324 690.155701,227.338089 698.109436,230.484238
	C700.378540,231.381775 703.438538,230.822586 706.012268,230.310318
	C715.545166,228.412918 725.222229,229.012238 734.809326,228.248520
	C741.219177,227.737915 747.904846,226.917877 750.577271,219.248138
	C751.406067,216.869385 753.395386,215.104324 755.587097,213.819229
	C760.020264,211.219757 764.171753,212.942154 765.477600,217.820129
	C768.862854,230.465408 777.334595,235.739685 790.124939,233.284805
	C799.419067,231.500977 808.735352,229.831833 818.049561,228.154846
	C819.178650,227.951584 820.410767,227.766144 821.502563,228.001556
	C827.836243,229.367096 834.105408,229.458008 840.054199,226.650665
	C846.143921,223.776779 852.669434,224.160416 858.686035,225.324127
	C868.827393,227.285660 878.936157,226.690903 889.035156,226.587967
	C896.396545,226.512939 903.510864,227.717667 910.711609,228.631744
	C913.877808,229.033676 916.470337,228.435349 918.457703,225.453217
	C919.898743,223.290894 922.408203,222.308624 925.107910,223.072479
	C931.000977,224.739838 935.501465,221.894440 939.621765,218.433502
	C941.804138,216.600418 943.952087,214.750000 946.458252,213.462036
	C950.343994,211.465149 955.476013,212.738495 957.602417,216.188278
	C959.908203,219.928925 958.617004,223.145126 955.838989,226.106384
	C953.953247,228.116486 951.685852,229.403931 949.127686,230.282379
	C934.795471,235.203812 920.455505,240.166458 905.524536,242.944443
	C896.359131,244.649719 887.328918,242.411774 878.311462,240.891083
	C874.052917,240.172928 869.752136,239.705902 865.025513,239.124725
z"/>
</svg>
